<svg xmlns="http://www.w3.org/2000/svg"  viewBox="0 0 48 48" width="48px" height="48px" baseProfile="basic"><linearGradient id="03mSt-USMvTyfbxYR4_oFa" x1="13.543" x2="60.257" y1="9.093" y2="48.291" gradientUnits="userSpaceOnUse"><stop offset="0" stop-color="#262626" stop-opacity="0"/><stop offset="1" stop-color="#262626" stop-opacity=".8"/></linearGradient><polygon fill="url(#03mSt-USMvTyfbxYR4_oFa)" points="41,7 24,7 24,43 39,39"/><linearGradient id="03mSt-USMvTyfbxYR4_oFb" x1=".839" x2="28.573" y1="-20.028" y2="56.171" gradientUnits="userSpaceOnUse"><stop offset="0" stop-color="#262626" stop-opacity="0"/><stop offset="1" stop-color="#262626" stop-opacity=".8"/></linearGradient><polygon fill="url(#03mSt-USMvTyfbxYR4_oFb)" points="24,7 7,7 9,39 24,43"/><linearGradient id="03mSt-USMvTyfbxYR4_oFc" x1="-3.49" x2="32.571" y1="3.01" y2="39.071" gradientUnits="userSpaceOnUse"><stop offset="0" stop-color="#262626" stop-opacity="0"/><stop offset="1" stop-color="#262626" stop-opacity=".8"/></linearGradient><polygon fill="url(#03mSt-USMvTyfbxYR4_oFc)" points="22,12 22,36 11,34 10.25,27 14.25,27 14.75,31.125 18,31.625 18,16 12,16 11.625,12"/><linearGradient id="03mSt-USMvTyfbxYR4_oFd" x1="11.78" x2="45.35" y1="3.78" y2="37.35" gradientUnits="userSpaceOnUse"><stop offset="0" stop-color="#262626" stop-opacity="0"/><stop offset="1" stop-color="#262626" stop-opacity=".8"/></linearGradient><polygon fill="url(#03mSt-USMvTyfbxYR4_oFd)" points="26,12 26,25 32.75,25 32.25,30.875 26,32 26,36 36,34 37,21 31,21 31,16 37.625,16 38,12"/></svg>